:SAMPLES-PER-SECOND 30
:FRAME-RANGE 1-2643
:FULLY-SPECIFIED
:DEGREES
1487
root  79.7503 30.1182 -2.97439 -61.7622 -84.8572 69.6508
RightUpLeg  -44.4565 -1.48937 -30.1759
RightLeg  71.7253 4.68505 14.8051
RightFoot  -36.0838 3.95755 19.0214
RightToes  5.38607e-012 1.2921e-014 -6.02303e-014
Spine  41.8784 -1.06703 5.90755
Spine1  -2.64992 2.73489 -8.67209
HEad  -18.3042 -5.19169 -8.82775
LeftShoulder1  2.40205 -7.10998 -16.609
LeftArm  -10.2669 -14.7685 -32.2647
LeftForeArm  15.2699 7.53109 -9.87896
LeftHand  -0.0608096 3.85346 3.21672
RightShoulder  1.50482 7.7155 6.02621
RightArm  -43.8821 41.266 11.8516
RightForeArm  55.7529 -4.49865 -4.11409
RightHand  0.0890527 -6.14704 -16.0648
LeftUpLeg  -47.6881 17.5895 27.1632
LeftLeg  38.4128 2.74567 2.71601
LeftFoot  -1.97205 1.20101 -14.4504
LeftToes  -4.79707e-012 -5.93756e-011 -7.55542e-012
1488
root  78.8262 28.5964 -1.66526 -30.7072 -85.075 38.2042
RightUpLeg  -42.5195 -2.88904 -32.0182
RightLeg  75.8174 4.15498 17.4541
RightFoot  -40.9594 5.12704 20.2817
RightToes  5.38607e-012 1.2921e-014 -6.02303e-014
Spine  41.8381 -0.498443 2.50162
Spine1  -2.91928 1.24726 -6.54817
HEad  -19.5024 -1.76963 -7.52049
LeftShoulder1  2.34721 -8.27793 -13.5405
LeftArm  -8.90868 -16.937 -29.4466
LeftForeArm  20.2756 7.73939 -11.294
LeftHand  -0.0489642 4.27413 2.95213
RightShoulder  1.53253 7.57784 6.50712
RightArm  -43.3401 39.3704 13.7104
RightForeArm  54.249 -4.47895 -4.48697
RightHand  0.0672588 -5.97895 -16.2441
LeftUpLeg  -52.8566 23.8406 27.0109
LeftLeg  42.7926 8.1368 8.38491
LeftFoot  -0.544781 1.33045 -13.9895
LeftToes  -4.79707e-012 -5.93756e-011 -7.55542e-012
1489
root  77.788 27.6451 -0.218135 5.05756 -82.7751 1.39523
RightUpLeg  -37.0293 -3.89805 -32.3486
RightLeg  76.4555 4.21464 18.6459
RightFoot  -44.325 6.27594 22.0085
RightToes  5.38607e-012 1.2921e-014 -6.02303e-014
Spine  41.9871 0.233965 -0.706202
Spine1  -3.02734 0.063133 -4.41894
HEad  -18.265 1.16109 -5.53044
LeftShoulder1  2.16604 -9.20471 -10.2705
LeftArm  -9.5176 -22.4807 -26.0078
LeftForeArm  22.3847 7.80925 -11.8229
LeftHand  -0.0386628 4.56114 2.23287
RightShoulder  1.69148 7.10548 8.93822
RightArm  -41.1145 35.1254 17.3725
RightForeArm  54.6084 -4.50695 -4.26612
RightHand  0.0191238 -5.62665 -16.3834
LeftUpLeg  -59.3493 30.0094 23.1532
LeftLeg  49.3347 11.6236 14.5381
LeftFoot  -2.77072 1.02179 -13.367
LeftToes  -4.79707e-012 -5.93756e-011 -7.55542e-012
1490
root  76.4943 27.0852 1.49431 19.5178 -77.5385 -13.645
RightUpLeg  -28.7878 -5.40789 -32.3259
RightLeg  73.9799 5.27798 19.3123
RightFoot  -46.4855 7.5485 24.5423
RightToes  5.38607e-012 1.2921e-014 -6.02303e-014
Spine  40.7391 1.59686 -4.31217
Spine1  -2.53418 -0.903334 -0.678657
HEad  -16.907 2.15549 -1.76936
LeftShoulder1  1.84664 -10.5498 -5.80002
LeftArm  -11.6007 -30.0536 -24.3865
LeftForeArm  23.8925 7.74237 -11.4688
LeftHand  -0.0448672 4.59227 3.35535
RightShoulder  1.95667 6.25149 13.6349
RightArm  -39.3329 28.4382 20.3826
RightForeArm  56.1069 -4.48259 -4.14298
RightHand  0.0340348 -5.72756 -16.6035
LeftUpLeg  -65.8572 31.3315 21.1924
LeftLeg  56.0397 5.61875 9.42052
LeftFoot  -1.07735 1.33779 -14.7579
LeftToes  -4.79707e-012 -5.93756e-011 -7.55542e-012
1491
root  74.8693 27.0299 3.52509 23.6801 -70.8777 -16.7862
RightUpLeg  -18.7789 -6.83358 -32.5391
RightLeg  67.6411 7.97514 19.9116
RightFoot  -46.1004 8.6893 28.2956
RightToes  5.38607e-012 1.2921e-014 -6.02303e-014
Spine  37.8605 3.05253 -9.49143
Spine1  -2.22738 -2.39103 4.51028
HEad  -14.4242 2.83192 4.80597
LeftShoulder1  1.38878 -11.9063 -1.04272
LeftArm  -14.015 -39.9197 -23.6973
LeftForeArm  24.8343 7.68385 -11.1472
LeftHand  -0.0469923 4.48804 3.30155
RightShoulder  2.38604 5.63117 20.4194
RightArm  -37.2163 21.5097 22.956
RightForeArm  57.5057 -4.56188 -3.43801
RightHand  0.33321 -7.58336 -18.3942
LeftUpLeg  -72.9693 30.5474 17.7746
LeftLeg  63.7209 2.11739 5.33646
LeftFoot  -4.87602 0.776204 -13.1806
LeftToes  -4.79707e-012 -5.93756e-011 -7.55542e-012
1492
root  73.0205 27.6206 5.85369 27.7133 -63.4404 -18.4684
RightUpLeg  -8.72903 -5.56075 -31.1087
RightLeg  58.0167 12.0197 19.4748
RightFoot  -39.466 8.66625 34.7197
RightToes  5.38607e-012 1.2921e-014 -6.02303e-014
Spine  33.3785 4.16042 -14.9832
Spine1  -0.64624 -3.87236 10.2718
HEad  -10.7681 2.39791 13.1106
LeftShoulder1  0.93568 -12.8778 2.77532
LeftArm  -16.6589 -51.749 -27.4599
LeftForeArm  26.3454 7.531 -10.2697
LeftHand  -0.00382447 5.85221 5.47577
RightShoulder  2.55976 4.35308 27.5062
RightArm  -37.9132 17.7604 25.6291
RightForeArm  60.1582 -4.26867 -4.61387
RightHand  0.143701 -6.61908 -15.2497
LeftUpLeg  -77.6417 28.9079 14.9362
LeftLeg  68.3466 1.17525 4.08532
LeftFoot  -7.2298 0.526852 -13.4249
LeftToes  -4.79707e-012 -5.93756e-011 -7.55542e-012
1493
root  71.1187 28.801 8.77401 30.3379 -55.4353 -18.6973
RightUpLeg  -0.615893 0.412194 -26.1883
RightLeg  47.2614 10.1591 11.274
RightFoot  -24.1903 3.70713 33.4839
RightToes  5.38607e-012 1.2921e-014 -6.02303e-014
Spine  30.8102 4.13379 -16.7299
Spine1  -0.192136 -4.68002 14.1663
HEad  -8.31553 -1.31922 20.7142
LeftShoulder1  0.453443 -12.6126 6.12965
LeftArm  -11.6601 -63.2528 -44.3461
LeftForeArm  28.5636 7.27656 -8.82673
LeftHand  -0.0311757 5.16523 3.37507
RightShoulder  2.57872 3.62146 31.3929
RightArm  -39.8032 12.8297 30.9298
RightForeArm  56.4402 -4.04756 -6.54818
RightHand  0.0872123 -6.30364 -13.5173
LeftUpLeg  -79.0544 25.9024 12.3563
LeftLeg  70.9384 0.645512 3.01747
LeftFoot  -11.0058 0.10442 -13.1767
LeftToes  -4.79707e-012 -5.93756e-011 -7.55542e-012
1494
root  69.287 30.0501 11.7876 32.1417 -48.9229 -16.1204
RightUpLeg  -0.593161 9.89908 -17.7174
RightLeg  47.7542 -0.951339 -1.45252
RightFoot  -14.4618 0.321214 15.3311
RightToes  5.38607e-012 1.2921e-014 -6.02303e-014
Spine  28.436 4.2211 -16.4659
Spine1  -1.20313 -3.97537 15.8422
HEad  -9.66403 -6.9187 25.7614
LeftShoulder1  0.227655 -12.0752 7.69679
LeftArm  13.5526 -69.6492 -79.8873
LeftForeArm  27.7844 7.30942 -8.97573
LeftHand  -0.0399107 4.97794 5.03588
RightShoulder  2.93193 4.15336 33.4956
RightArm  -42.481 10.2246 35.6751
RightForeArm  50.3363 -3.76724 -9.12205
RightHand  0.00662181 -5.65929 -11.3075
LeftUpLeg  -78.6031 21.452 9.73368
LeftLeg  71.5216 0.123986 1.36739
LeftFoot  -16.4088 -0.456188 -12.4833
LeftToes  -4.79707e-012 -5.93756e-011 -7.55542e-012
1495
root  67.7707 31.065 14.2881 30.7873 -45.5504 -10.3959
RightUpLeg  -4.58889 16.0736 -15.1504
RightLeg  57.1117 -0.560261 -1.37527
RightFoot  -18.3656 0.599987 11.7747
RightToes  5.38607e-012 1.2921e-014 -6.02303e-014
Spine  26.9853 5.30619 -16.892
Spine1  -1.14943 -2.4321 14.3164
HEad  -14.8648 -11.0801 28.273
LeftShoulder1  0.273777 -13.2179 7.49494
LeftArm  41.1955 -67.9908 -111.117
LeftForeArm  36.8468 3.4844 -11.3308
LeftHand  -0.0611301 4.35571 4.68229
RightShoulder  3.47373 5.5749 33.3234
RightArm  -46.47 13.2079 40.2962
RightForeArm  49.992 -3.05545 -13.1178
RightHand  0.0249449 -6.00759 -9.06066
LeftUpLeg  -75.8705 15.7335 6.27286
LeftLeg  70.0197 0.559252 2.59772
LeftFoot  -17.5975 -0.341231 -8.16052
LeftToes  -4.79707e-012 -5.93756e-011 -7.55542e-012
1496
root  66.3804 32.1617 16.9807 29.1514 -42.911 -6.00113
RightUpLeg  -10.0983 15.0792 -15.2674
RightLeg  65.5491 2.78854 6.09319
RightFoot  -18.934 0.702601 12.4864
RightToes  5.38607e-012 1.2921e-014 -6.02303e-014
Spine  26.8646 5.10535 -15.5827
Spine1  -1.4336 -1.52174 11.7537
HEad  -16.7445 -14.1795 29.0893
LeftShoulder1  0.62147 -13.1006 5.05494
LeftArm  48.8007 -61.956 -123.938
LeftForeArm  45.1641 4.16128 -12.392
LeftHand  -0.0403277 4.96848 5.0555
RightShoulder  3.8998 6.87719 32.5148
RightArm  -45.2421 18.0385 44.6674
RightForeArm  44.9955 -3.22851 -12.861
RightHand  0.18717 -7.31095 -12.7057
LeftUpLeg  -70.5141 10.7559 3.36977
LeftLeg  67.6967 1.32365 4.35604
LeftFoot  -20.4175 -0.343835 -5.86984
LeftToes  -4.79707e-012 -5.93756e-011 -7.55542e-012
1497
root  65.0382 33.3879 19.9622 28.9351 -40.8785 -4.97653
RightUpLeg  -15.7936 8.10829 -14.2325
RightLeg  69.5625 2.71465 7.31486
RightFoot  -21.2965 1.08659 14.0782
RightToes  5.38607e-012 1.2921e-014 -6.02303e-014
Spine  26.8952 4.60854 -12.6714
Spine1  -2.74873 -0.656054 11.1463
HEad  -15.1409 -16.5548 29.0098
LeftShoulder1  1.09637 -12.6627 1.53736
LeftArm  38.7867 -55.323 -121.071
LeftForeArm  40.4248 7.58513 -12.0255
LeftHand  -0.0461386 4.80106 4.88665
RightShoulder  4.24546 7.7903 32.4838
RightArm  -42.892 22.6517 46.7667
RightForeArm  44.841 -3.52219 -11.2586
RightHand  0.125182 -6.24506 -18.701
LeftUpLeg  -62.7993 7.17083 2.55672
LeftLeg  64.1424 2.31477 5.89675
LeftFoot  -24.2352 -0.500927 -5.71664
LeftToes  -4.79707e-012 -5.93756e-011 -7.55542e-012
1498
root  63.7317 34.6283 23.0606 29.2712 -40.6702 -5.1683
RightUpLeg  -23.4265 0.034014 -11.89
RightLeg  71.0141 1.02144 2.48396
RightFoot  -23.2159 1.33072 14.2513
RightToes  5.38607e-012 1.2921e-014 -6.02303e-014
Spine  24.758 4.02575 -8.93972
Spine1  -1.68105 0.260745 10.2741
HEad  -13.7043 -18.6104 26.926
LeftShoulder1  1.63615 -11.8624 -2.92401
LeftArm  26.718 -49.1988 -111.198
LeftForeArm  43.2948 7.50267 -11.9026
LeftHand  -0.0107295 5.76093 4.77899
RightShoulder  4.54661 8.71033 32.0614
RightArm  -40.9437 27.3964 49.1981
RightForeArm  49.6065 -3.62959 -9.99812
RightHand  0.0732912 -5.77805 -23.7691
LeftUpLeg  -54.0658 4.43665 2.0136
LeftLeg  59.3666 4.23379 8.28095
LeftFoot  -26.3909 -0.782637 -7.11777
LeftToes  -4.79707e-012 -5.93756e-011 -7.55542e-012
1499
root  62.3979 35.9513 26.401 27.9015 -40.782 -5.60461
RightUpLeg  -29.2958 -6.44114 -7.94362
RightLeg  68.1067 -0.25047 -1.40861
RightFoot  -24.7406 1.35154 12.8926
RightToes  5.38607e-012 1.2921e-014 -6.02303e-014
Spine  23.2864 3.19181 -3.06167
Spine1  0.152352 1.01356 9.10472
HEad  -12.1183 -21.217 21.5365
LeftShoulder1  2.08702 -11.7442 -6.40325
LeftArm  17.3019 -44.0182 -100.247
LeftForeArm  41.8944 7.55554 -12.0395
LeftHand  -0.00409523 5.72161 6.80219
RightShoulder  4.58639 9.15105 31.0318
RightArm  -36.8759 30.6419 52.197
RightForeArm  50.1005 -4.11389 -7.21918
RightHand  0.0264565 -5.53332 -25.2952
LeftUpLeg  -43.9825 2.22125 1.34074
LeftLeg  55.154 5.57742 9.07978
LeftFoot  -23.9934 -1.01452 -10.4251
LeftToes  -4.79707e-012 -5.93756e-011 -7.55542e-012
